<svg width="422" height="138" viewBox="0 0 422 138" fill="none" xmlns="http://www.w3.org/2000/svg">
<path d="M1 49.8836L3.02899 46.8554L6.68116 56.1727L8.71015 55.7068L9.92754 61.7631L11.5507 48.0201L16.0145 51.2811L18.8551 45.6908L22.1014 61.0643L26 28.5L39.5 10.5L62.5 1.00002L79 25.5L118.275 4.5C119.222 1.16131 151.632 37.4133 151.957 33.5C152.362 28.6084 170.652 66.502 172.652 58.502L174.275 67.5864L177.522 64.5582L179.551 62.9277L181.174 57.8032L183.203 57.1044L185.638 65.49L186.855 58.0362L188.884 57.3374L190.101 58.735L192.536 59.2008L194.159 64.3253L195.783 65.49L197.406 56.4056L200.246 52.2129H203.493L205.116 48.9518L207.145 50.3494L207.957 47.3213L210.391 46.3896L212.014 48.7189L213.638 48.253L214.855 45.2249L216.478 44.2932L219.319 74.1085L222.565 75.2731L226.623 82.7269L239 87.3856L244.072 89.4819H253L267 87.3856L283.841 96.5L293.986 94.1406L314.681 104H328L344.5 110H356.884L375.957 115.803C376.227 116.657 377.012 118.505 377.986 119.064C379.203 119.763 380.42 123.257 380.42 123.49C380.42 123.676 381.502 132.574 382.043 137L384.884 116.968C385.831 116.58 387.806 115.524 388.13 114.406L390.971 86.4538L392.188 91.3454C392.729 88.3949 393.812 82.5406 393.812 82.7269C393.812 82.9133 394.894 85.4445 395.435 86.6868L397.058 83.4257L399.493 87.3856L401.116 75.2731L402.739 73.8755L404.362 75.739L405.58 79.4659L408.015 79L410.043 81.0964L411.261 73.6426L412.478 75.9719L414.507 77.1366L416.942 89.4819L419.377 92.2771L420.188 94.1406L421 93.2089" stroke="#5F00D9" stroke-width="1.5" stroke-linecap="round" stroke-linejoin="round"/>
</svg>
