<svg width="422" height="118" viewBox="0 0 422 118" fill="none" xmlns="http://www.w3.org/2000/svg">
<path d="M1 49.8836L3.02899 46.8554L6.68116 56.1727L8.71015 55.7068L9.92754 61.7631L11.5507 48.0201L16.0145 51.2811L18.8551 45.6908L22.1014 61.0643L26 28.5L39.5 10.5L62.5 1.00002L77.5 45.2249L109 61.7631C109.947 58.4244 151.632 37.4133 151.957 33.5C152.362 28.6084 170.652 66.502 172.652 58.502L174.275 67.5864L177.522 64.5582L190.101 22.5L200.246 1.00002L207.145 17.5L216.478 10.5L219.319 15.5L222.565 24.5L239 45.6908L262 65.49L283.5 45.6908L296 33.5L356.884 110L366.5 53.5C366.771 54.3541 368.526 42.941 369.5 43.5C370.717 44.1988 370.5 13.2671 370.5 13.5C370.5 13.6863 377.444 39.0743 377.986 43.5L384.884 116.968C385.831 116.58 387.806 115.524 388.13 114.406L390.971 86.4538L392.188 91.3454C392.729 88.3949 393.812 82.5406 393.812 82.7269C393.812 82.9133 394.894 85.4445 395.435 86.6868L397.058 83.4257L399.493 87.3856L401.116 75.2731L402.739 73.8755L404.362 75.739L405.58 79.4659L408.015 79L410.043 81.0964L411.261 73.6426L412.478 75.9719L414.507 77.1366L416.942 89.4819L419.377 92.2771L420.188 94.1406L421 93.2089" stroke="#5F00D9" stroke-width="1.5" stroke-linecap="round" stroke-linejoin="round"/>
</svg>
