<svg width="422" height="128" viewBox="0 0 422 128" fill="none" xmlns="http://www.w3.org/2000/svg">
<path d="M1 59.8836L3.02899 56.8554L6.68116 66.1727L8.71015 65.7068L9.92754 71.7631L11.5507 58.0201L16.0145 61.2811L18.8551 55.6908L22.1014 71.0643L26 38.5L37.5 34.5L53.5 46L77.5 55.2249L111 38.5C104.551 40.9497 144.152 53.269 151.957 43.5C155.02 39.6652 163.5 28.5 165.5 20.5C170.271 7.44727 173.81 3.79606 181 1C187.299 9.37912 188.63 17.2626 189.5 33.5C188.291 25.7154 198.066 8.25195 200.246 11C201.935 18.5292 203.328 22.2691 207.145 27.5C211.978 26.0038 213.789 24.2288 216.478 20.5L219.319 25.5L222.565 34.5L239 55.6908L260.5 27.5L283.5 55.6908L296 43.5C305.824 54.3107 311.02 60.5896 315 75.49C318.77 91.5953 325.18 98.0407 340 107.5L366.5 63.5C366.771 64.3541 368.526 52.941 369.5 53.5C370.717 54.1988 370.5 23.2671 370.5 23.5C370.5 23.6863 377.444 49.0743 377.986 53.5L384.884 126.968C385.831 126.58 387.806 125.524 388.13 124.406L390.971 96.4538L392.188 101.345C392.729 98.3949 393.812 92.5406 393.812 92.7269C393.812 92.9133 394.894 95.4445 395.435 96.6868L397.058 93.4257L399.493 97.3856L401.116 85.2731L402.739 83.8755L404.362 85.739L405.58 89.4659L408.015 89L410.043 91.0964L411.261 83.6426L412.478 85.9719L414.507 87.1366L416.942 99.4819L419.377 102.277L420.188 104.141L421 103.209" stroke="#5F00D9" stroke-width="1.5" stroke-linecap="round" stroke-linejoin="round"/>
</svg>
